<svg xmlns="http://www.w3.org/2000/svg" viewBox="0 0 64 64" role="img" aria-label="Rocket pickup icon">
  <defs>
    <radialGradient id="halo" cx="50%" cy="50%" r="50%">
      <stop offset="0%" stop-color="#fb7185" stop-opacity="0.48"/>
      <stop offset="100%" stop-color="#fb7185" stop-opacity="0"/>
    </radialGradient>
    <linearGradient id="body" x1="0" y1="0" x2="1" y2="1">
      <stop offset="0%" stop-color="#f8fafc"/>
      <stop offset="100%" stop-color="#cbd5e1"/>
    </linearGradient>
    <linearGradient id="fin" x1="0" y1="0" x2="1" y2="1">
      <stop offset="0%" stop-color="#ef4444"/>
      <stop offset="100%" stop-color="#b91c1c"/>
    </linearGradient>
    <linearGradient id="flame" x1="0" y1="0" x2="1" y2="1">
      <stop offset="0%" stop-color="#fde68a"/>
      <stop offset="55%" stop-color="#fb923c"/>
      <stop offset="100%" stop-color="#ea580c"/>
    </linearGradient>
  </defs>

  <circle cx="32" cy="32" r="30" fill="url(#halo)"/>

  <g transform="translate(32 32) rotate(-35) translate(-32 -32)">
    <ellipse cx="23.5" cy="40" rx="4" ry="8" fill="url(#fin)"/>
    <ellipse cx="40.5" cy="40" rx="4" ry="8" fill="url(#fin)"/>

    <path d="M32 8C23 12 18 22 18 34L32 28L46 34C46 22 41 12 32 8Z" fill="url(#body)" stroke="#94a3b8" stroke-width="1.2"/>
    <ellipse cx="32" cy="25" rx="4.6" ry="4.1" fill="#60a5fa" stroke="#0f172a" stroke-width="1"/>

    <path d="M24.5 34L32 57L39.5 34" fill="url(#flame)" opacity="0.96"/>
    <path d="M28 35L32 48L36 35" fill="#fef08a" opacity="0.9"/>
  </g>
</svg>
